<?xml version="1.0" standalone="no"?><!DOCTYPE svg PUBLIC "-//W3C//DTD SVG 1.1//EN" "http://www.w3.org/Graphics/SVG/1.1/DTD/svg11.dtd"><svg t="1619341348060" class="icon" viewBox="0 0 1024 1024" version="1.1" xmlns="http://www.w3.org/2000/svg" p-id="45729" xmlns:xlink="http://www.w3.org/1999/xlink" width="200" height="200"><defs><style type="text/css"></style></defs><path d="M768 0c141.385 0 256 114.615 256 256v512c0 141.385-114.615 256-256 256H256C114.615 1024 0 909.385 0 768V256C0 114.615 114.615 0 256 0h512zM511.55 213.5c-70.566 0-127.771 57.205-127.771 127.772 0 68.938 54.596 125.125 122.91 127.673a297.925 297.925 0 0 0-144.062 39.82c-92.343 53.246-149.233 151.742-149.21 258.337h329.566l-74.534-128.965 74.534-129.092h117.976a297.842 297.842 0 0 0-144.54-40.093c68.31-2.558 122.904-58.744 122.904-127.68 0-70.567-57.206-127.772-127.772-127.772z m233.695 316.202H617.474l-63.886 110.65 63.886 110.65h127.771l63.886-110.65-63.886-110.65z m-63.332 67.037a42.59 42.59 0 1 1 0 85.181c-23.522 0-42.59-19.068-42.59-42.59 0-23.522 19.068-42.59 42.59-42.59z" fill="#17abe3" p-id="45730" data-spm-anchor-id="a313x.7781069.0.i54" class="selected"></path></svg>