<?xml version="1.0" standalone="no"?><!DOCTYPE svg PUBLIC "-//W3C//DTD SVG 1.1//EN" "http://www.w3.org/Graphics/SVG/1.1/DTD/svg11.dtd"><svg t="1619341221341" class="icon" viewBox="0 0 1024 1024" version="1.1" xmlns="http://www.w3.org/2000/svg" p-id="41210" xmlns:xlink="http://www.w3.org/1999/xlink" width="200" height="200"><defs><style type="text/css"></style></defs><path d="M0 0m142.222222 0l739.555556 0q142.222222 0 142.222222 142.222222l0 739.555556q0 142.222222-142.222222 142.222222l-739.555556 0q-142.222222 0-142.222222-142.222222l0-739.555556q0-142.222222 142.222222-142.222222Z" fill="#17abe3" p-id="41211" data-spm-anchor-id="a313x.7781069.0.i50" class="selected"></path><path d="M640.995556 542.250667c4.764444 8.718222 9.813333 17.123556 15.587555 24.462222v33.28c48.270222 27.562667 85.077333 61.767111 123.491556 90.055111v53.390222h103.367111v-37.077333c-33.706667-27.306667-62.008889-62.435556-113.223111-82.033778v-55.893333c26.780444-33.393778 44.387556-85.233778 44.387555-124.273778 0-62.421333-45.041778-113.024-100.551111-113.024-15.502222 0-29.980444 4.266667-43.121778 11.292444 1.991111 13.368889 2.986667 27.164444 2.986667 41.301334-0.042667 48.071111-11.505778 106.908444-32.924444 158.520889zM128.199111 705.592889v37.831111h103.281778v-54.442667c38.485333-29.084444 74.154667-63.886222 122.695111-91.534222v-23.466667c6.144-7.566222 11.676444-16.312889 16.782222-25.415111-22.926222-51.740444-35.313778-111.829333-35.313778-161.152 0-15.502222 1.336889-30.563556 3.697778-45.155555a92.231111 92.231111 0 0 0-41.329778-9.984c-56.334222 0-102.030222 51.328-102.030222 114.659555 0 39.395556 17.678222 91.605333 44.586667 125.525334v51.939555c-50.872889 19.299556-79.473778 54.016-112.355556 81.208889z m514.375111-312.888889C642.56 301.511111 592.199111 227.555556 505.443556 227.555556c-86.784 0-138.524444 76.899556-138.524445 168.092444 0 65.137778 26.538667 153.045333 73.258667 198.030222v1.92c-81.92 22.727111-126.236444 69.731556-175.644445 106.183111v76.743111h482.503111v-75.776c-49.607111-35.811556-96.568889-82.261333-176.497777-105.671111v-4.053333c46.279111-45.966222 72.035556-135.239111 72.035555-200.334222z" fill="#FFFFFF" p-id="41212"></path></svg>