<?xml version="1.0" standalone="no"?><!DOCTYPE svg PUBLIC "-//W3C//DTD SVG 1.1//EN" "http://www.w3.org/Graphics/SVG/1.1/DTD/svg11.dtd"><svg t="1619341475281" class="icon" viewBox="0 0 1024 1024" version="1.1" xmlns="http://www.w3.org/2000/svg" p-id="50313" xmlns:xlink="http://www.w3.org/1999/xlink" width="200" height="200"><defs><style type="text/css"></style></defs><path d="M0 0m204.8 0l614.4 0q204.8 0 204.8 204.8l0 614.4q0 204.8-204.8 204.8l-614.4 0q-204.8 0-204.8-204.8l0-614.4q0-204.8 204.8-204.8Z" fill="#e98f36" p-id="50314" data-spm-anchor-id="a313x.7781069.0.i70" class="selected"></path><path d="M724.3776 349.952h-426.24l-44.2368 115.7888c0 34.6624 28.7488 63.4368 64.1536 63.4368 35.4048 0 64.896-28.032 64.896-63.4368 0 34.6624 28.7488 63.4368 64.1536 63.4368 35.4048 0 64.896-28.032 64.896-63.4368 0 34.6624 28.7488 63.4368 64.1536 63.4368 35.4048 0 64.1536-28.032 64.1536-63.4368 0 34.6624 28.7744 63.4368 64.896 63.4368 35.4048 0 64.896-28.032 64.896-63.4368l-45.7216-115.7632z m-35.4048 199.1168v147.5072H335.0272v-147.5072h-36.864v154.88c0 13.2608 14.72 29.4912 28.0064 29.4912h370.944c13.2608 0 28.0064-16.2304 28.0064-29.4912v-154.88h-36.1472z m35.4048-199.8336l4.48 4.48-4.48-4.48z m-396.7488-28.7744h368.7424c12.544 0 22.1184-9.5744 22.1184-22.1184a21.7344 21.7344 0 0 0-22.1184-22.1184H327.6288a21.7344 21.7344 0 0 0-22.1184 22.1184c0 12.544 9.6 22.1184 22.1184 22.1184z" fill="#FFFFFF" p-id="50315"></path></svg>