<?xml version="1.0" standalone="no"?><!DOCTYPE svg PUBLIC "-//W3C//DTD SVG 1.1//EN" "http://www.w3.org/Graphics/SVG/1.1/DTD/svg11.dtd"><svg t="1619341507068" class="icon" viewBox="0 0 1024 1024" version="1.1" xmlns="http://www.w3.org/2000/svg" p-id="51755" xmlns:xlink="http://www.w3.org/1999/xlink" width="200" height="200"><defs><style type="text/css"></style></defs><path d="M228.352 85.333333h567.296C891.008 85.333333 938.666667 132.992 938.666667 228.352v567.296C938.666667 891.008 891.008 938.666667 795.648 938.666667H228.352C132.992 938.666667 85.333333 891.008 85.333333 795.648V228.352C85.333333 132.992 132.992 85.333333 228.352 85.333333z" p-id="51756" data-spm-anchor-id="a313x.7781069.0.i75" class="" fill="#e98f36"></path><path d="M510.378667 213.333333c28.842667 0 47.573333 16.896 58.197333 31.104l3.968 5.333334 5.333333-3.584c11.562667-7.594667 23.125333-11.093333 33.792-11.093334 9.813333 0 24.021333 3.114667 36.053334 18.645334 9.813333 12.458667 13.312 27.989333 10.666666 44.885333-3.114667 20.906667-15.530667 44.885333-34.176 65.365333l-5.376 6.186667 7.125334 4.48c43.946667 28.458667 147.114667 106.666667 151.509333 223.573333 2.218667 56.917333-11.52 100.906667-40.021333 130.218667-34.176 35.584-80.426667 39.552-98.176 39.552h-257.706667c-18.261333 0-64-3.968-98.218667-39.552-28.458667-29.781333-41.770667-73.301333-39.978666-130.218667 4.437333-116.864 107.52-195.541333 151.509333-223.573333l7.082667-4.48-5.333334-6.186667c-11.093333-12.458667-29.781333-36.906667-34.176-65.365333-2.645333-17.28 1.322667-32.896 11.093334-44.885333 11.989333-15.530667 26.197333-18.645333 36.010666-18.645334 10.666667 0 22.186667 4.010667 33.792 11.093334l4.864 3.584 3.968-5.333334c10.24-13.781333 28.885333-30.72 57.301334-31.104h0.896z m55.466666 260.693334a11.946667 11.946667 0 0 0-8.661333 3.669333l-48.341333 48.725333-48.725334-48.341333a11.306667 11.306667 0 0 0-8.661333-3.712 11.946667 11.946667 0 0 0-8.704 3.712 11.306667 11.306667 0 0 0-3.669333 8.704c0 3.285333 1.28 6.229333 3.669333 8.661333l57.429333 57.386667h-57.429333a12.16 12.16 0 0 0-12.373333 12.373333c0 7.04 5.376 12.373333 12.373333 12.373334h53.717333v31.402666h-53.717333a12.16 12.16 0 0 0-12.373333 12.373334c0 7.04 5.376 12.373333 12.373333 12.373333h53.717333v34.688c0 7.04 5.376 12.373333 12.373334 12.373333 7.04 0 12.373333-5.802667 12.373333-12.373333v-34.688h53.717333c6.997333 0 12.373333-5.333333 12.373334-12.373333a12.16 12.16 0 0 0-12.373334-12.373334h-53.717333v-31.402666h53.717333c6.997333 0 12.373333-5.333333 12.373334-12.373334a12.16 12.16 0 0 0-12.373334-12.373333h-57.429333l57.002667-57.770667a11.946667 11.946667 0 0 0 0-17.365333 11.306667 11.306667 0 0 0-8.661334-3.712z" p-id="51757" data-spm-anchor-id="a313x.7781069.0.i74" class="selected" fill="#ffffff"></path></svg>