<?xml version="1.0" standalone="no"?><!DOCTYPE svg PUBLIC "-//W3C//DTD SVG 1.1//EN" "http://www.w3.org/Graphics/SVG/1.1/DTD/svg11.dtd"><svg t="1619355140843" class="icon" viewBox="0 0 1024 1024" version="1.1" xmlns="http://www.w3.org/2000/svg" p-id="12856" xmlns:xlink="http://www.w3.org/1999/xlink" width="200" height="200"><defs><style type="text/css"></style></defs><path d="M818.37568 976.896l-57.728 40.66304a17.06496 17.06496 0 0 1-19.67104 0l-58.96704-41.55904a17.06496 17.06496 0 0 0-19.62496 0l-58.96704 41.55904a17.06496 17.06496 0 0 1-19.66592 0l-58.96704-41.55904a17.06496 17.06496 0 0 0-19.67104 0l-58.96192 41.55904a17.06496 17.06496 0 0 1-19.63008 0l-58.96192-41.55904a17.06496 17.06496 0 0 0-19.67104 0l-58.96704 41.55904a17.06496 17.06496 0 0 1-19.66592 0l-57.472-40.53504a17.06496 17.06496 0 0 0-21.33504 1.36704c-32.16896 29.26592-53.97504 43.904-65.44896 43.904-18.944 0-83.37408-55.04-83.37408-108.544v-828.416C41.6256 38.20544 79.83104 0 126.96064 0h768c47.1296 0 85.33504 38.20544 85.33504 85.33504v828.416c0 51.328-61.35808 107.136-77.48608 107.08992-9.80992-0.08192-30.88896-14.336-63.36-42.83392a17.06496 17.06496 0 0 0-21.07392-1.11104zM568.56064 182.69696a91.17696 91.17696 0 0 0-114.85696-0.33792L195.44064 408.576a36.608 36.608 0 0 0 17.664 59.43296s3.75296 1.49504 9.216 1.49504h76.16v236.032c0 33.87904 25.55904 59.04896 59.35104 59.04896h306.38592c33.83808 0 59.392-25.00096 59.392-59.04896V469.41696h74.71104l0.72704 0.17408 0.59392-0.08704h0.94208v-0.16896a36.77696 36.77696 0 0 0 26.496-60.20608l-258.51904-226.432h0.08704-0.08704z m7.20896 231.08608h36.52608a35.56352 35.56352 0 0 1 0 71.12192H546.8416v26.112h77.568a35.56352 35.56352 0 1 1 0 71.12704h-77.568v70.82496a35.56352 35.56352 0 1 1-71.12192 0V582.144H397.4656a35.56352 35.56352 0 1 1 0-71.12704h78.29504v-26.112H408.64768a35.56352 35.56352 0 1 1 0-71.12192h38.05696l-44.8-71.12704a35.41504 35.41504 0 0 1 11.17696-48.93696 35.67104 35.67104 0 0 1 49.07008 11.264l49.06496 77.86496 49.06496-77.86496a35.67104 35.67104 0 0 1 49.23904-11.18208 35.41504 35.41504 0 0 1 11.09504 48.85504l-44.8 71.12704h-0.04608z" fill="#1296db" p-id="12857" data-spm-anchor-id="a313x.7781069.0.i2" class="selected"></path></svg>