<?xml version="1.0" standalone="no"?><!DOCTYPE svg PUBLIC "-//W3C//DTD SVG 1.1//EN" "http://www.w3.org/Graphics/SVG/1.1/DTD/svg11.dtd"><svg t="1619355302029" class="icon" viewBox="0 0 1026 1024" version="1.1" xmlns="http://www.w3.org/2000/svg" p-id="24141" xmlns:xlink="http://www.w3.org/1999/xlink" width="200.390625" height="200"><defs><style type="text/css"></style></defs><path d="M1022.379909 1007.213588c0 9.270465-7.503998 16.786412-16.760522 16.786412H16.760522c-9.256524 0-16.760522-7.516943-16.760522-16.786412V16.786412C0 7.515947 7.503998 0 16.760522 0h988.858865c9.256524 0 16.760522 7.515947 16.760522 16.786412v990.427176z" fill="#1296db" p-id="24142" data-spm-anchor-id="a313x.7781069.0.i9" class="selected"></path><path d="M700.20786 294.30091c0 7.941134-4.193118 14.377684-9.365062 14.377684H523.014527c-5.172939 0-9.367053-6.43655-9.367053-14.377684v-38.341487c0-7.941134 4.194114-14.377684 9.367053-14.377684h167.828271c5.171943 0 9.365061 6.43655 9.365062 14.377684v38.341487zM781.685387 492.598242c0 6.683497-3.893396 12.100396-8.692928 12.100396H522.339406c-4.799532 0-8.691932-5.416899-8.691932-12.100396v-43.363072c0-6.683497 3.8924-12.100396 8.691932-12.100396h250.652057c4.799532 0 8.692928 5.416899 8.692928 12.100396v43.363072zM838.922291 685.387065c0 6.030283-3.394524 10.919432-7.578679 10.919433H521.227149c-4.185152 0-7.579675-4.889149-7.579675-10.919433v-49.140433c0-6.030283 3.394524-10.919432 7.579675-10.919433h310.115467c4.184156 0 7.57868 4.889149 7.57868 10.919433v49.140433zM422.905457 241.581739L205.125213 494.804831h217.780244L205.125213 723.753446" fill="#FFFFFF" p-id="24143"></path><path d="M320.996065 470.916706l101.909392 23.888125-121.454041 12.563422L205.125213 494.804831z" fill="#FFFFFF" p-id="24144"></path></svg>