<?xml version="1.0" standalone="no"?><!DOCTYPE svg PUBLIC "-//W3C//DTD SVG 1.1//EN" "http://www.w3.org/Graphics/SVG/1.1/DTD/svg11.dtd"><svg t="1619354867646" class="icon" viewBox="0 0 1024 1024" version="1.1" xmlns="http://www.w3.org/2000/svg" p-id="20229" xmlns:xlink="http://www.w3.org/1999/xlink" width="200" height="200"><defs><style type="text/css"></style></defs><path d="M921.6 0a102.4 102.4 0 0 1 102.4 102.4v819.2a102.4 102.4 0 0 1-102.4 102.4H102.4a102.4 102.4 0 0 1-102.4-102.4V102.4a102.4 102.4 0 0 1 102.4-102.4h819.2zM471.04 307.2h-122.88c-22.528 0-40.96 18.432-40.96 40.96v327.68c0 22.528 18.432 40.96 40.96 40.96h122.88c22.528 0 40.96-18.432 40.96-40.96s-18.432-40.96-40.96-40.96h-81.92V389.12h81.92c22.528 0 40.96-18.432 40.96-40.96s-18.432-40.96-40.96-40.96z m109.44512 103.69024v57.67168h-110.91968c-21.7088 0-39.48544 18.8416-39.48544 41.86112v3.15392c0 23.01952 17.75616 41.86112 39.48544 41.86112h110.91968v57.67168c0 19.3536 22.07744 29.06112 34.95936 15.36l95.35488-101.10976c7.9872-8.47872 7.9872-22.24128 0-30.72l-95.35488-101.10976c-12.9024-13.70112-34.95936-3.9936-34.95936 15.36z" fill="#1afa29" p-id="20230"></path></svg>