<?xml version="1.0" standalone="no"?><!DOCTYPE svg PUBLIC "-//W3C//DTD SVG 1.1//EN" "http://www.w3.org/Graphics/SVG/1.1/DTD/svg11.dtd"><svg t="1619361993767" class="icon" viewBox="0 0 1024 1024" version="1.1" xmlns="http://www.w3.org/2000/svg" p-id="49243" xmlns:xlink="http://www.w3.org/1999/xlink" width="200" height="200"><defs><style type="text/css"></style></defs><path d="M883.852148 1024H139.124875c-76.723277 0-139.124875-62.197003-139.124875-139.124875v-744.727273C0 63.21998 62.197003 1.022977 139.124875 1.022977h744.727273c76.723277 0 139.124875 62.197003 139.124875 139.124875v744.727273c0 76.927872-62.197003 139.124875-139.124875 139.124875z" fill="#f4ea2a" p-id="49244" data-spm-anchor-id="a313x.7781069.0.i12" class="selected"></path><path d="M728.768831 435.992807H293.799001c-14.730869 0-26.597403 11.866533-26.597403 26.597403s11.866533 26.597403 26.597403 26.597402h11.661938l31.916883 198.457543c0 12.275724 4.91029 23.937662 13.503297 32.530669 8.593007 8.593007 20.45954 13.503297 32.735265 13.503297h255.335065c12.275724 0 23.937662-4.705694 32.735264-13.503297 8.593007-8.593007 13.503297-20.254945 13.503297-32.530669l31.916883-198.457543h11.661938c14.730869 0 26.597403-12.071129 26.597403-26.801998 0.204595-14.526274-11.866533-26.392807-26.597403-26.392807z" fill="#FFFFFF" p-id="49245"></path><path d="M447.654745 643.861738c0.613786 4.705694-0.818382 9.411389-3.887312 12.889511-3.068931 3.478122-7.774625 5.319481-12.48032 5.114885-4.705694 0.204595-9.206793-1.841359-12.071129-5.319481-3.068931-3.478122-4.296503-8.183816-3.682717-12.684915v-111.095304c-0.818382-4.705694 0.409191-9.615984 3.478122-13.298702 3.068931-3.682717 7.57003-5.933267 12.275724-5.933266 4.91029 0 9.411389 2.250549 12.48032 5.728671 3.068931 3.682717 4.501099 8.593007 3.887312 13.298701v111.2999zM532.766434 643.861738c0.613786 4.705694-0.818382 9.411389-3.887313 12.889511-3.068931 3.478122-7.774625 5.319481-12.48032 5.114885-4.705694 0.204595-9.206793-1.841359-12.071129-5.319481-3.068931-3.478122-4.296503-8.183816-3.682717-12.684915v-111.095304c-0.818382-4.705694 0.409191-9.615984 3.478122-13.298702 3.068931-3.682717 7.57003-5.933267 12.275724-5.933266 4.91029 0 9.411389 2.250549 12.684915 5.728671 3.068931 3.682717 4.501099 8.593007 3.887313 13.298701v111.2999zM617.878122 643.861738c0.613786 4.705694-0.818382 9.411389-3.887313 12.889511-3.068931 3.478122-7.774625 5.319481-12.480319 5.114885-4.705694 0.204595-9.206793-1.841359-12.071129-5.319481-3.068931-3.478122-4.296503-8.183816-3.682718-12.684915v-111.095304c-0.818382-4.705694 0.409191-9.615984 3.478122-13.298702 3.068931-3.682717 7.57003-5.933267 12.275725-5.933266 4.91029 0 9.411389 2.250549 12.684915 5.728671 3.068931 3.682717 4.501099 8.593007 3.887312 13.298701v111.2999z" fill="#f4ea2a" p-id="49246" data-spm-anchor-id="a313x.7781069.0.i13" class="selected"></path><path d="M369.499301 417.579221c-7.979221-5.319481-10.025175-16.367632-4.705695-24.346853l64.856744-95.955245c5.319481-7.979221 16.367632-10.025175 24.346853-4.705694 7.979221 5.319481 10.025175 16.367632 4.705694 24.346853l-64.856743 95.955244c-5.319481 7.979221-16.367632 10.22977-24.346853 4.705695zM651.840959 417.579221c7.979221-5.319481 10.025175-16.367632 4.705694-24.346853l-64.856743-95.955245c-5.319481-7.979221-16.367632-10.025175-24.346853-4.705694-7.979221 5.319481-10.025175 16.367632-4.705694 24.346853l64.856743 95.955244c5.319481 7.979221 16.367632 10.22977 24.346853 4.705695z" fill="#FFFFFF" p-id="49247"></path></svg>