<?xml version="1.0" standalone="no"?><!DOCTYPE svg PUBLIC "-//W3C//DTD SVG 1.1//EN" "http://www.w3.org/Graphics/SVG/1.1/DTD/svg11.dtd"><svg t="1619361803103" class="icon" viewBox="0 0 1024 1024" version="1.1" xmlns="http://www.w3.org/2000/svg" p-id="42274" xmlns:xlink="http://www.w3.org/1999/xlink" width="200" height="200"><defs><style type="text/css"></style></defs><path d="M889.984 14.6432H134.016A119.3216 119.3216 0 0 0 14.6432 134.016v755.968a119.3216 119.3216 0 0 0 119.3728 119.3728h755.968a119.3216 119.3216 0 0 0 119.3728-119.3728V134.016A119.3216 119.3216 0 0 0 889.984 14.6432z m-154.7776 686.848a200.0384 200.0384 0 0 1-142.336 59.1872H303.104a39.7824 39.7824 0 1 1 0-79.5904h289.792c32.3072 0 62.9504-12.7232 86.016-35.8144a121.0368 121.0368 0 0 0 35.9168-86.1184 122.112 122.112 0 0 0-121.9584-121.9584h-239.232l56.32 56.32a39.7568 39.7568 0 1 1-28.16 67.9424c-10.24 0-20.3776-3.8912-28.16-11.648L249.6 445.7472a67.7376 67.7376 0 0 1-19.8144-44.288c-0.2048-1.28-0.2048-2.6624-0.2048-4.0704 0-1.3824 0-2.7648 0.2048-4.0704 0.9216-16.7168 7.9616-32.3328 19.8144-44.16l104.0384-104.0384a39.8592 39.8592 0 0 1 56.32 0 39.8592 39.8592 0 0 1 0 56.2944l-56.32 56.192h239.232c111.104 0 201.5488 90.4192 201.5488 201.5232a200.3456 200.3456 0 0 1-59.2128 142.3616z" p-id="42275" fill="#f4ea2a"></path></svg>