<?xml version="1.0" standalone="no"?><!DOCTYPE svg PUBLIC "-//W3C//DTD SVG 1.1//EN" "http://www.w3.org/Graphics/SVG/1.1/DTD/svg11.dtd"><svg t="1619355734587" class="icon" viewBox="0 0 1024 1024" version="1.1" xmlns="http://www.w3.org/2000/svg" p-id="31290" xmlns:xlink="http://www.w3.org/1999/xlink" width="200" height="200"><defs><style type="text/css"></style></defs><path d="M933.376 0H90.680889C40.618667 0 0 40.618667 0 90.680889v842.695111C0 983.438222 40.618667 1024 90.680889 1024h842.695111c50.062222 0 90.567111-40.561778 90.624-90.624V90.680889C1024 40.618667 983.438222 0.056889 933.376 0zM128 128H512v64H128V128z m256 256h-256V320h256V384z m478.094222 439.182222a174.250667 174.250667 0 0 1-123.619555 56.888889v59.733333h-67.413334v-60.074666a192 192 0 0 1-100.295111-36.352 147.228444 147.228444 0 0 1-56.888889-93.923556 312.263111 312.263111 0 0 1-3.470222-49.493333h70.371556c-3.299556 32.995556 9.272889 65.706667 33.962666 87.950222 16.497778 11.946667 35.84 19.456 56.092445 21.902222 22.414222 2.616889 44.999111 2.958222 67.470222 1.024a75.548444 75.548444 0 0 0 79.075556-78.734222 45.738667 45.738667 0 0 0-14.449778-37.831111 163.783111 163.783111 0 0 0-61.098667-26.794667l-3.527111-1.137777a2269.866667 2269.866667 0 0 0-67.470222-16.156445l-50.460445-12.8a113.379556 113.379556 0 0 1-96.483555-116.963555 132.949333 132.949333 0 0 1 45.681778-104.391112 170.268444 170.268444 0 0 1 101.717333-39.253333v-56.775111h67.470222v57.628444c22.186667 2.503111 43.804444 8.760889 64 18.318223 24.576 11.946667 45.056 31.004444 58.595556 54.727111 12.856889 23.324444 19.342222 49.664 18.716444 76.288v11.377778h-71.281778a136.817778 136.817778 0 0 0-7.850666-47.729778 79.36 79.36 0 0 0-62.464-42.609778 221.525333 221.525333 0 0 0-67.413334-2.104889 69.12 69.12 0 0 0-67.868444 73.784889 43.804444 43.804444 0 0 0 15.644444 37.376c54.954667 23.552 112.355556 40.96 171.178667 51.996444a124.700444 124.700444 0 0 1 105.984 120.945778c0.113778 34.133333-11.946667 67.128889-33.905778 93.240889z" p-id="31291" fill="#f4ea2a"></path></svg>