<?xml version="1.0" standalone="no"?><!DOCTYPE svg PUBLIC "-//W3C//DTD SVG 1.1//EN" "http://www.w3.org/Graphics/SVG/1.1/DTD/svg11.dtd"><svg t="1619362491256" class="icon" viewBox="0 0 1024 1024" version="1.1" xmlns="http://www.w3.org/2000/svg" p-id="74524" xmlns:xlink="http://www.w3.org/1999/xlink" width="200" height="200"><defs><style type="text/css"></style></defs><path d="M113.777778 0h796.444444c62.577778 0 113.777778 51.2 113.777778 113.777778v796.444444c0 62.577778-51.2 113.777778-113.777778 113.777778H113.777778c-62.577778 0-113.777778-51.2-113.777778-113.777778V113.777778c0-62.577778 51.2-113.777778 113.777778-113.777778z" fill="#f4ea2a" p-id="74525" data-spm-anchor-id="a313x.7781069.0.i17" class="selected"></path><path d="M759.466667 312.888889c19.911111 0 36.977778 14.222222 36.977777 31.288889v88.177778h-5.688888c-42.666667 5.688889-65.422222 39.822222-65.422223 76.8 0 36.977778 19.911111 68.266667 62.577778 76.8H796.444444v91.022222c0 8.533333-2.844444 17.066667-11.377777 22.755555-5.688889 5.688889-14.222222 8.533333-22.755556 8.533334H264.533333c-11.377778 0-19.911111-2.844444-25.6-8.533334-5.688889-2.844444-11.377778-11.377778-11.377777-19.911111v-91.022222h5.688888c42.666667-8.533333 68.266667-39.822222 68.266667-76.8 0-36.977778-22.755556-68.266667-62.577778-76.8H230.4v-88.177778c-2.844444-19.911111 11.377778-34.133333 31.288889-34.133333h497.777778z m-147.911111 227.555555h-199.111112c-11.377778 2.844444-17.066667 17.066667-8.533333 25.6l62.577778 56.888889h2.844444c5.688889 2.844444 14.222222 2.844444 19.911111-2.844444l2.844445-2.844445c5.688889-5.688889 2.844444-14.222222-2.844445-17.066666L452.266667 568.888889H614.4c8.533333 0 14.222222-5.688889 14.222222-14.222222-2.844444-8.533333-8.533333-14.222222-17.066666-14.222223z m-54.044445-139.377777c-8.533333-2.844444-17.066667-2.844444-19.911111 2.844444l-2.844444 2.844445c-5.688889 5.688889-2.844444 14.222222 2.844444 17.066666l36.977778 31.288889H412.444444c-8.533333 0-14.222222 5.688889-14.222222 14.222222s5.688889 14.222222 14.222222 14.222223h199.111112c11.377778-2.844444 17.066667-17.066667 8.533333-25.6l-62.577778-56.888889z" fill="#FFFFFF" p-id="74526"></path></svg>