<?xml version="1.0" standalone="no"?><!DOCTYPE svg PUBLIC "-//W3C//DTD SVG 1.1//EN" "http://www.w3.org/Graphics/SVG/1.1/DTD/svg11.dtd"><svg t="1619364136262" class="icon" viewBox="0 0 1024 1024" version="1.1" xmlns="http://www.w3.org/2000/svg" p-id="143380" xmlns:xlink="http://www.w3.org/1999/xlink" width="200" height="200"><defs><style type="text/css"></style></defs><path d="M134.19 2.91h755.554c36.083 0 68.982 14.763 92.782 38.563 23.801 23.8 38.565 56.636 38.565 92.718v158.582h-99.655c-7-54.791-36.145-95.964-71.146-95.964-34.937 0-64.082 41.11-71.08 95.964H436.526c-7-54.791-36.145-95.964-71.083-95.964-34.935 0-64.082 41.11-71.082 95.964H242.5c-7.191-54.282-36.146-94.946-70.891-94.946-34.682 0-63.636 40.663-70.891 95.008H2.909V134.191c0-36.083 14.764-68.92 38.564-92.72C65.209 17.674 98.109 2.91 134.19 2.91z m886.9 338.354v339.372H920.674c-6.682-55.363-36.018-96.918-71.273-96.918-35.19 0-64.526 41.555-71.273 96.918h-54.28c-6.364-56.318-35.828-99.018-71.402-99.018-35.636 0-65.162 42.7-71.4 99.018h-48.427c-7-54.727-36.145-95.963-71.145-95.963-34.937 0-64.082 41.11-71.082 95.963H2.909V341.264h97.3c6.3 56.318 35.827 98.954 71.4 98.954 35.573 0 65.1-42.636 71.336-98.954h51.293c6.49 55.81 35.89 98 71.336 98 35.445 0 64.845-42.19 71.336-98h342.11c6.617 55.872 35.954 98 71.336 98 35.446 0 64.909-42.19 71.4-98h99.335z m0 387.927v160.553c0 36.146-14.763 68.982-38.5 92.782-23.8 23.801-56.7 38.565-92.782 38.565H134.191c-36.146 0-68.982-14.764-92.782-38.5-23.736-23.8-38.5-56.636-38.5-92.782V729.255h387.227c6.555 55.809 35.955 97.936 71.337 97.936 35.382 0 64.845-42.191 71.336-97.936h48.682c7.19 54.218 36.145 94.881 70.89 94.881 34.746 0 63.7-40.727 70.892-94.881h54.79c6.682 55.3 36.019 96.917 71.273 96.917 35.191 0 64.528-41.617 71.21-96.917h100.545v-0.064z" p-id="143381" fill="#1aaba8"></path></svg>