<?xml version="1.0" standalone="no"?><!DOCTYPE svg PUBLIC "-//W3C//DTD SVG 1.1//EN" "http://www.w3.org/Graphics/SVG/1.1/DTD/svg11.dtd"><svg t="1619364288418" class="icon" viewBox="0 0 1024 1024" version="1.1" xmlns="http://www.w3.org/2000/svg" p-id="148388" xmlns:xlink="http://www.w3.org/1999/xlink" width="200" height="200"><defs><style type="text/css"></style></defs><path d="M833.024 64H191.488c-69.632 0-126.976 57.344-126.976 126.976v641.536c0 69.632 57.344 126.976 126.976 126.976h641.536c69.632 0 126.976-57.344 126.976-126.976V190.464c0-69.12-56.832-126.464-126.976-126.464z m-267.776 125.952v240.64H468.992v-240.64h96.256zM326.144 430.08h382.976c-0.512 18.944-8.192 42.496-23.04 56.832l-112.64 105.984c-31.232 29.184-81.408 29.184-112.64 0L348.16 486.912c-16.384-15.36-23.552-36.352-22.528-56.32l0.512-0.512z m479.232 336.384c0 26.624-21.504 48.128-48.128 48.128H276.48c-26.624 0-48.128-21.504-48.128-48.128v-48.128c0-26.624 21.504-48.128 48.128-48.128h480.768c26.624 0 48.128 21.504 48.128 48.128v48.128z" p-id="148389" fill="#1aaba8"></path></svg>