<?xml version="1.0" standalone="no"?><!DOCTYPE svg PUBLIC "-//W3C//DTD SVG 1.1//EN" "http://www.w3.org/Graphics/SVG/1.1/DTD/svg11.dtd"><svg t="1619363946001" class="icon" viewBox="0 0 1024 1024" version="1.1" xmlns="http://www.w3.org/2000/svg" p-id="142134" width="200" height="200" xmlns:xlink="http://www.w3.org/1999/xlink"><defs><style type="text/css"></style></defs><path d="M140.288 5.12C74.24 18.432 22.528 67.584 7.68 132.096c-10.24 42.496-10.24 717.312 0 759.808 12.8 55.296 44.032 90.624 102.912 117.76l25.6 11.776H883.712l30.72-12.288c40.448-16.384 78.848-54.784 95.232-95.232l12.288-30.72V140.8l-12.288-30.72c-16.384-40.448-54.784-78.848-95.232-95.232L883.712 2.56 522.752 1.536C324.096 1.536 152.064 3.072 140.288 5.12z m413.696 199.168C566.272 212.48 640 266.24 717.312 323.584c152.576 113.664 159.744 121.344 130.56 140.288-12.8 8.192-14.336 8.192-28.672 0l-14.848-8.704v30.72c0 27.648-1.536 31.744-12.8 39.424-12.288 8.192-13.824 7.68-23.04-0.512-8.192-7.68-10.24-16.896-11.264-57.856l-1.536-48.64-120.32-89.088C569.344 280.576 513.536 240.64 512 240.64c-1.536 0-54.272 36.352-116.736 80.896L281.6 401.92l0.512 115.2c1.024 63.488 2.56 149.504 4.608 192l3.072 76.8 88.064 2.56c74.24 2.048 89.6 4.096 96.768 11.264 7.68 7.168 8.192 11.264 3.072 22.016l-6.144 13.824-96.256-2.048c-136.192-2.048-133.632 0-134.656-143.36-0.512-51.2-2.048-127.488-4.096-169.472L233.472 445.44l-18.944 12.8c-22.528 15.36-30.208 15.872-41.984 3.072-18.944-20.992-11.776-28.16 142.848-142.848C397.312 258.048 471.04 204.288 479.232 199.168c22.528-14.336 47.616-12.288 74.752 5.12zM394.752 458.24v33.28H323.072V424.96h71.68v33.28z m81.92 0v33.28H410.112V424.96h66.56v33.28z m87.04 0v33.28H492.032V424.96H563.712v33.28z m112.128 43.008c81.408 25.6 128 107.52 105.472 187.392-4.608 16.896-8.704 33.28-9.216 36.352-0.512 3.584 18.432 20.48 42.496 38.4 44.032 33.28 53.76 48.128 40.96 64-11.776 13.312-29.184 7.168-73.216-26.112l-43.52-32.768-35.328 17.92c-33.28 17.92-36.352 18.432-78.336 16.384-67.072-3.584-109.568-31.744-137.216-90.624-10.752-23.552-12.288-32.256-10.24-69.12 3.584-62.464 29.696-106.496 79.36-131.072 43.52-22.016 74.24-24.576 118.784-10.752zM394.752 542.72v35.84H323.072V506.88h71.68v35.84z m81.92 0v35.84H410.112V506.88h66.56v35.84zM394.752 624.64v35.84H323.072V588.8h71.68v35.84z" p-id="142135" fill="#1aaba8"></path><path d="M583.68 554.496c-66.048 35.328-79.872 118.272-28.16 169.984 40.96 40.448 98.816 43.52 143.36 7.168 23.04-19.456 38.912-52.736 38.912-83.456 0-77.312-86.016-129.536-154.112-93.696z" p-id="142136" fill="#1aaba8"></path></svg>