<?xml version="1.0" standalone="no"?><!DOCTYPE svg PUBLIC "-//W3C//DTD SVG 1.1//EN" "http://www.w3.org/Graphics/SVG/1.1/DTD/svg11.dtd"><svg t="1619363160377" class="icon" viewBox="0 0 1024 1024" version="1.1" xmlns="http://www.w3.org/2000/svg" p-id="35818" xmlns:xlink="http://www.w3.org/1999/xlink" width="200" height="200"><defs><style type="text/css"></style></defs><path d="M607.255814 547.72093v-23.813953h-47.627907v23.813953H416.744186v-23.813953h-47.627907v23.813953H250.046512v452.465117h476.279069V547.72093H607.255814zM488.186047 900.88186l-33.577675 33.577675-33.815814-33.577675L353.39907 833.488372l33.577674-33.577674 67.393489 67.393488 134.786976-134.786977 33.577675 33.577675L488.186047 900.88186zM297.674419 666.790698v-71.441861h71.44186v23.813954h47.627907v-23.813954h142.883721v23.813954h47.627907v-23.813954h71.44186v71.441861H297.674419z" fill="#FFFFFF" p-id="35819"></path><path d="M0 0m357.209302 0l309.581396 0q357.209302 0 357.209302 357.209302l0 309.581396q0 357.209302-357.209302 357.209302l-309.581396 0q-357.209302 0-357.209302-357.209302l0-309.581396q0-357.209302 357.209302-357.209302Z" fill="#d4237a" p-id="35820" data-spm-anchor-id="a313x.7781069.0.i12" class="selected"></path><path d="M273.860465 587.454512c0 38.304744 85.134884 71.834791 184.462884 71.83479 7.941953 0 15.75293-0.202419 23.385302-0.583442a140.359442 140.359442 0 0 0 44.198698 63.035535c-19.753674 2.95293-40.96 4.584186-62.85693 4.584186C358.995349 726.325581 273.860465 692.807442 273.860465 654.490791v-67.036279z m0-95.779721c0 38.316651 85.134884 71.834791 184.462884 71.83479 8.46586 0 16.77693-0.226233 24.885581-0.654883a139.633116 139.633116 0 0 0-9.168372 49.997395c0 5.929674 0.357209 11.787907 1.071628 17.52707-3.988837 0.11907-8.013395 0.178605-12.061767 0.178604C358.995349 625.759256 273.860465 597.015814 273.860465 558.722977v-67.036279z m368.925768-100.554419v71.822884a33.899163 33.899163 0 0 1-3.869768 11.906977c-8.049116-1.428837-16.312558-2.178977-24.766512-2.178977a139.883163 139.883163 0 0 0-111.854139 55.748465 476.231442 476.231442 0 0 1-39.245395 1.571721C358.995349 529.979535 273.860465 496.473302 273.860465 458.156651v-67.036279c0 38.304744 85.134884 71.822884 184.462884 71.822884 104.066977 0 184.462884-33.51814 184.462884-71.822884z" fill="#FFFFFF" p-id="35821"></path><path d="M458.323349 429.425116C358.995349 429.425116 273.860465 400.693581 273.860465 357.602233 273.860465 319.285581 358.995349 285.767442 458.323349 285.767442c104.066977 0 184.462884 33.51814 184.462884 71.834791 4.72707 43.103256-80.407814 71.822884-184.462884 71.822883z" fill="#FFFFFF" opacity=".7" p-id="35822"></path><path d="M631.069767 500.093023c65.762233 0 119.069767 53.307535 119.069768 119.069768s-53.307535 119.069767-119.069768 119.069767-119.069767-53.307535-119.069767-119.069767 53.307535-119.069767 119.069767-119.069768z m54.248186 105.841117h-108.496372a11.906977 11.906977 0 0 0-11.906976 11.906976v2.643349a11.906977 11.906977 0 0 0 11.906976 11.906977h108.496372a11.906977 11.906977 0 0 0 11.906977-11.906977v-2.643349a11.906977 11.906977 0 0 0-11.906977-11.906976z" fill="#FFFFFF" p-id="35823"></path></svg>