<?xml version="1.0" standalone="no"?><!DOCTYPE svg PUBLIC "-//W3C//DTD SVG 1.1//EN" "http://www.w3.org/Graphics/SVG/1.1/DTD/svg11.dtd"><svg t="1619340262259" class="icon" viewBox="0 0 1024 1024" version="1.1" xmlns="http://www.w3.org/2000/svg" p-id="12061" xmlns:xlink="http://www.w3.org/1999/xlink" width="200" height="200"><defs><style type="text/css"></style></defs><path d="M832.85333333 27.30666667H191.14666667C102.4 27.30666667 27.30666667 102.4 27.30666667 191.14666667v634.88c0 95.57333333 75.09333333 170.66666667 170.66666666 170.66666666h634.88c95.57333333 0 170.66666667-75.09333333 170.66666667-170.66666666V191.14666667C996.69333333 102.4 921.6 27.30666667 832.85333333 27.30666667zM341.33333333 279.89333333c6.82666667-20.48 20.48-40.96 40.96-61.44 20.48-20.48 40.96-34.13333333 61.44-40.96 20.48-6.82666667 40.96-13.65333333 68.26666667-13.65333333s47.78666667 6.82666667 68.26666667 13.65333333c20.48 6.82666667 40.96 20.48 61.44 40.96 20.48 20.48 34.13333333 40.96 40.96 61.44 6.82666667 20.48 13.65333333 47.78666667 13.65333333 68.26666667 0 27.30666667-6.82666667 47.78666667-13.65333333 68.26666667-13.65333333 27.30666667-27.30666667 47.78666667-47.78666667 68.26666666-13.65333333 13.65333333-34.13333333 27.30666667-54.61333333 34.13333334-27.30666667 13.65333333-47.78666667 13.65333333-68.26666667 13.65333333-27.30666667 0-47.78666667-6.82666667-68.26666667-13.65333333-27.30666667-6.82666667-47.78666667-20.48-61.44-34.13333334-20.48-20.48-34.13333333-40.96-40.96-61.44-6.82666667-27.30666667-13.65333333-47.78666667-13.65333333-75.09333333 0-27.30666667 6.82666667-47.78666667 13.65333333-68.26666667z m457.38666667 525.65333334c-6.82666667 20.48-20.48 27.30666667-40.96 40.96-20.48 13.65333333-40.96 13.65333333-68.26666667 13.65333333H327.68c-27.30666667 0-47.78666667-6.82666667-68.26666667-13.65333333-20.48-13.65333333-34.13333333-27.30666667-40.96-40.96-6.82666667-20.48-6.82666667-47.78666667 0-68.26666667 6.82666667-6.82666667 6.82666667-20.48 13.65333334-27.30666667 47.78666667-102.4 157.01333333-177.49333333 279.89333333-177.49333333 88.74666667 0 170.66666667 34.13333333 225.28 95.57333333 27.30666667 27.30666667 40.96 47.78666667 54.61333333 75.09333334 6.82666667 6.82666667 13.65333333 20.48 13.65333334 27.30666666 6.82666667 13.65333333 6.82666667 27.30666667 6.82666666 40.96-6.82666667 13.65333333-6.82666667 27.30666667-13.65333333 34.13333334z" fill="#1296db" p-id="12062"></path></svg>