<?xml version="1.0" standalone="no"?><!DOCTYPE svg PUBLIC "-//W3C//DTD SVG 1.1//EN" "http://www.w3.org/Graphics/SVG/1.1/DTD/svg11.dtd"><svg t="1619341877123" class="icon" viewBox="0 0 1024 1024" version="1.1" xmlns="http://www.w3.org/2000/svg" p-id="69777" xmlns:xlink="http://www.w3.org/1999/xlink" width="200" height="200"><defs><style type="text/css"></style></defs><path d="M0 0m85.333333 0l853.333334 0q85.333333 0 85.333333 85.333333l0 853.333334q0 85.333333-85.333333 85.333333l-853.333334 0q-85.333333 0-85.333333-85.333333l0-853.333334q0-85.333333 85.333333-85.333333Z" fill="#17abe3" p-id="69778" data-spm-anchor-id="a313x.7781069.0.i102" class="selected"></path><path d="M392.533333 204.8a12.8 12.8 0 0 1 12.8-12.8h213.333334a12.8 12.8 0 0 1 12.8 12.8v159.288889a12.8 12.8 0 0 1-12.8 12.8h-213.333334a12.8 12.8 0 0 1-12.8-12.8z m-133.688889 288.711111a20.906667 20.906667 0 0 1 21.333334-21.333333H497.777778v-58.311111a12.8 12.8 0 0 1 25.6 0v58.311111h217.6a20.906667 20.906667 0 0 1 21.333333 21.333333V640a12.8 12.8 0 0 1-25.6 0V497.777778h-213.333333v129.422222a12.8 12.8 0 0 1-25.6 0V497.777778H284.444444v142.222222a12.8 12.8 0 0 1-25.6 0z m93.866667 325.688889a12.8 12.8 0 0 1-12.8 12.8h-133.688889a12.8 12.8 0 0 1-12.8-12.8v-129.422222a12.8 12.8 0 0 1 12.8-12.8h133.688889a12.8 12.8 0 0 1 12.8 12.8z m238.933333 0a12.8 12.8 0 0 1-12.8 12.8h-133.688888a12.8 12.8 0 0 1-12.8-12.8v-129.422222a12.8 12.8 0 0 1 12.8-12.8h133.688888a12.8 12.8 0 0 1 12.8 12.8z m240.355556 0a12.8 12.8 0 0 1-12.8 12.8h-133.688889a12.8 12.8 0 0 1-12.8-12.8v-129.422222a12.8 12.8 0 0 1 12.8-12.8h133.688889a12.8 12.8 0 0 1 12.8 12.8z" fill="#FFFFFF" p-id="69779"></path></svg>