<?xml version="1.0" standalone="no"?><!DOCTYPE svg PUBLIC "-//W3C//DTD SVG 1.1//EN" "http://www.w3.org/Graphics/SVG/1.1/DTD/svg11.dtd"><svg t="1619341117165" class="icon" viewBox="0 0 1024 1024" version="1.1" xmlns="http://www.w3.org/2000/svg" p-id="37742" xmlns:xlink="http://www.w3.org/1999/xlink" width="200" height="200"><defs><style type="text/css"></style></defs><path d="M1023.886273 861.902688a162.097312 162.097312 0 0 1-162.097312 162.097312H162.097337a162.097312 162.097312 0 0 1-162.097312-162.097312V162.097312a162.097312 162.097312 0 0 1 162.097312-162.097312h699.805377a162.097312 162.097312 0 0 1 162.097311 162.097312v699.805376z" fill="#17abe3" p-id="37743" data-spm-anchor-id="a313x.7781069.0.i32" class="selected"></path><path d="M765.95248 574.848256l89.466341-21.584537v-82.470562l-89.466341-21.584537a259.213508 259.213508 0 0 0-29.831593-71.891579l47.946679-78.375472-58.468785-58.326595-78.546101 47.832926a260.464786 260.464786 0 0 0-72.062208-29.774716l-21.612975-89.267274h-82.698067l-21.612975 89.267274a260.578538 260.578538 0 0 0-71.948456 29.746278l-78.546101-47.832926-58.468785 58.326594 47.946679 78.375473a258.559431 258.559431 0 0 0-29.831593 71.891579l-89.466341 21.584537v82.470562l89.466341 21.584537a258.530993 258.530993 0 0 0 29.831593 71.891579l-47.975117 78.375473 58.468785 58.326594 78.574539-47.832926a260.5501 260.5501 0 0 0 72.062208 29.774716l21.641413 89.267274h82.612753l21.641413-89.238835a260.208842 260.208842 0 0 0 72.062209-29.774717l78.574539 47.832926 58.468784-58.326594-47.946678-78.375472a259.270384 259.270384 0 0 0 29.71784-71.89158z m-253.924017 65.834259A128.682515 128.682515 0 1 1 640.99536 512a128.824706 128.824706 0 0 1-128.966897 128.682515z" fill="#FFFFFF" p-id="37744"></path></svg>