<?xml version="1.0" standalone="no"?><!DOCTYPE svg PUBLIC "-//W3C//DTD SVG 1.1//EN" "http://www.w3.org/Graphics/SVG/1.1/DTD/svg11.dtd"><svg t="1619341396243" class="icon" viewBox="0 0 1024 1024" version="1.1" xmlns="http://www.w3.org/2000/svg" p-id="47822" data-spm-anchor-id="a313x.7781069.0.i58" xmlns:xlink="http://www.w3.org/1999/xlink" width="200" height="200"><defs><style type="text/css"></style></defs><path d="M150.588235 0h722.82353c83.169882 0 150.588235 67.418353 150.588235 150.588235v722.82353c0 83.169882-67.418353 150.588235-150.588235 150.588235H150.588235C67.418353 1024 0 956.581647 0 873.411765V150.588235C0 67.418353 67.418353 0 150.588235 0z m662.588236 517.978353c-40.990118-13.101176-95.216941-13.914353-115.169883-40.417882-3.267765-4.201412-3.523765-15.36-3.44847-23.898353 0-3.087059 1.340235-6.113882 3.70447-8.267294 23.792941-20.931765 39.860706-57.765647 39.860706-93.696 0-68.562824-10.842353-125.44-81.408-125.44-44.890353 0-66.048 22.106353-75.294118 55.341176 19.395765 12.197647 31.608471 29.153882 39.30353 44.318118 17.377882 34.725647 19.787294 78.034824 19.787294 115.83247 0 24.756706-5.210353 50.145882-15.194353 73.487059a171.52 171.52 0 0 1-31.472941 49.724235c2.499765 1.325176 6.098824 3.162353 11.264 5.014589 12.001882 4.367059 27.181176 7.529412 43.173647 10.782117 40.056471 8.402824 85.639529 17.648941 111.992471 52.208941 7.228235 9.336471 13.296941 20.992 18.537411 34.936471H813.176471v-149.925647z m-550.912 116.058353c25.675294-36.442353 72.583529-45.733647 113.92-54.091294 16.218353-3.162353 31.397647-6.324706 43.474823-10.541177 4.999529-1.746824 8.523294-3.312941 10.977882-4.743529-12.649412-13.778824-23.145412-30.479059-31.277176-49.197177a193.867294 193.867294 0 0 1-15.555765-72.372705c-0.391529-32.075294 1.626353-56.485647 5.797647-77.221648 6.113882-29.801412 17.287529-52.495059 34.273883-69.571764a98.243765 98.243765 0 0 1 18.672941-14.908236C433.076706 247.973647 412.355765 225.882353 368.338824 225.882353c-72.734118 0-82.959059 57.524706-82.266353 126.584471 0.391529 35.207529 16.414118 71.860706 39.951058 92.717176a11.143529 11.143529 0 0 1 3.749647 8.432941c0 8.523294-0.572235 19.621647-3.568941 23.552-19.486118 26.473412-74.149647 27.075765-115.395764 39.755294v150.814118h34.454588c4.818824-13.357176 10.541176-24.395294 16.986353-33.701647z m498.793411 149.534118c-1.551059-28.807529-7.484235-96.813176-30.418823-127.171765-35.132235-45.824-141.176471-30.795294-172.197647-72.764235-3.312941-4.713412-3.915294-17.347765-3.689412-26.849883a13.176471 13.176471 0 0 1 4.216471-9.216c26.277647-23.491765 44.077176-64.692706 44.077176-105.035294 0-77.101176-11.911529-140.769882-90.142118-140.769882-80.685176 0-92.039529 64.361412-91.25647 141.884235 0.376471 39.604706 18.100706 80.549647 44.378353 103.920941a12.980706 12.980706 0 0 1 4.171294 9.517177c0 9.547294-0.557176 21.925647-4.035765 26.503529-30.629647 41.968941-139.941647 25.825882-173.071059 72.764235-21.805176 31.036235-27.904 98.454588-29.590588 127.232a12.694588 12.694588 0 0 0 12.694588 13.357177h472.124236c7.228235 0 13.086118-6.083765 12.739764-13.357177z" fill="#e98f36" p-id="47823" data-spm-anchor-id="a313x.7781069.0.i59" class="selected"></path></svg>