<?xml version="1.0" standalone="no"?><!DOCTYPE svg PUBLIC "-//W3C//DTD SVG 1.1//EN" "http://www.w3.org/Graphics/SVG/1.1/DTD/svg11.dtd"><svg t="1619341589699" class="icon" viewBox="0 0 1024 1024" version="1.1" xmlns="http://www.w3.org/2000/svg" p-id="56144" xmlns:xlink="http://www.w3.org/1999/xlink" width="200" height="200"><defs><style type="text/css"></style></defs><path d="M169.126054 0H849.504865c93.405405 0 169.126054 75.706811 169.126054 169.112216v680.351135C1018.617081 942.882595 942.91027 1018.603243 849.504865 1018.603243H169.126054C75.720649 1018.603243 0 942.882595 0 849.463351V169.112216C0 75.706811 75.720649 0 169.126054 0" fill="#e98f36" p-id="56145" data-spm-anchor-id="a313x.7781069.0.i83" class="selected"></path><path d="M530.445838 618.855784h53.829189v19.220757H622.702703v-19.234595h49.968432c7.68 0 11.526919 3.846919 11.526919 11.540757v123.00454c0 7.693838-3.846919 11.540757-11.526919 11.540757H530.445838c-3.846919 0-11.526919-3.846919-11.526919-11.540757v-123.018378c0-7.68 7.68-11.513081 11.526919-11.513081m-184.499892 0h49.968432v19.220757h38.441514v-19.234595H484.324324c7.68 0 15.373838 3.846919 15.373838 11.540757v123.00454c0 7.693838-7.693838 11.540757-15.36 11.540757H345.945946c-7.707676 0-11.554595-3.846919-11.554595-11.540757v-123.018378c0-7.68 3.846919-11.513081 11.540757-11.513081m92.243027-172.972973h53.829189v23.067675h34.594595v-23.067675h53.801513c7.693838 0 11.526919 7.693838 11.526919 11.526919v123.00454c0 7.693838-3.833081 15.36-11.526919 15.36H438.188973c-3.833081 0-11.526919-7.666162-11.526919-15.36v-123.018378c0-3.819243 7.693838-11.513081 11.526919-11.513081m-165.279135 326.711351c-11.526919 0-23.067676-11.513081-23.067676-26.886919V445.882811l-15.36 7.693838c-3.860757-3.846919-7.693838-7.693838-7.693838-15.373838v-84.576865c0-3.833081 3.833081-11.526919 7.68-11.526919L518.918919 246.009081h7.68l257.536 96.089946c3.846919 0 7.693838 7.693838 7.693838 11.526919v84.576865c0 3.833081 0 7.68-3.846919 11.526919 0 0-3.846919 0-3.846919 3.846919l-15.36-7.693838v299.824432c0 15.36-11.540757 26.900757-23.067676 26.900757-15.387676 0-23.067676-11.526919-23.067675-26.900757V430.495135l-196.040649-73.036108c-3.846919-3.846919-3.846919-3.846919-7.68 0L295.991351 430.495135v315.19827c0 15.36-7.707676 26.900757-23.081513 26.900757" fill="#FFFFFF" p-id="56146"></path></svg>