<?xml version="1.0" standalone="no"?><!DOCTYPE svg PUBLIC "-//W3C//DTD SVG 1.1//EN" "http://www.w3.org/Graphics/SVG/1.1/DTD/svg11.dtd"><svg t="1619341618411" class="icon" viewBox="0 0 1024 1024" version="1.1" xmlns="http://www.w3.org/2000/svg" p-id="57627" xmlns:xlink="http://www.w3.org/1999/xlink" width="200" height="200"><defs><style type="text/css"></style></defs><path d="M919.071744 0H104.940544A107.9808 107.9808 0 0 0 0.031744 110.6432v802.7136A107.9808 107.9808 0 0 0 104.940544 1024h814.08A107.9808 107.9808 0 0 0 1024.031744 913.3568V110.592A108.032 108.032 0 0 0 919.071744 0z m-80.6912 332.0832a338.3808 338.3808 0 0 1-325.4784 292.1984 338.9952 338.9952 0 0 1-325.9904-291.84 79.4112 79.4112 0 0 1-47.0528-73.5744A77.3632 77.3632 0 0 1 215.071744 179.2a77.312 77.312 0 0 1 74.8032 79.4112 82.5856 82.5856 0 0 1-7.0144 33.0752 68.9152 68.9152 0 0 1-15.7184 29.9008 253.3376 253.3376 0 0 0 245.76 216.8832 253.3888 253.3888 0 0 0 245.76-216.7296 66.2528 66.2528 0 0 1-15.36-28.3136 82.3808 82.3808 0 0 1-7.8848-34.8672 75.1104 75.1104 0 1 1 150.016 0 79.36 79.36 0 0 1-46.7456 73.5232z" fill="#d81e06" p-id="57628" data-spm-anchor-id="a313x.7781069.0.i88" class="selected"></path></svg>