<?xml version="1.0" standalone="no"?><!DOCTYPE svg PUBLIC "-//W3C//DTD SVG 1.1//EN" "http://www.w3.org/Graphics/SVG/1.1/DTD/svg11.dtd"><svg t="1619341725396" class="icon" viewBox="0 0 1024 1024" version="1.1" xmlns="http://www.w3.org/2000/svg" p-id="65656" xmlns:xlink="http://www.w3.org/1999/xlink" width="200" height="200"><defs><style type="text/css"></style></defs><path d="M843.271 44.942h-655.36c-80.1 0-145.635 65.536-145.635 145.636v655.36c0 80.1 65.536 145.635 145.635 145.635h655.36c80.1 0 145.636-65.536 145.636-145.635v-655.36c0-80.1-65.536-145.636-145.636-145.636zM297.138 773.12c-20.39 0-36.41-16.02-36.41-36.409s16.02-36.409 36.41-36.409c20.389 0 36.409 16.02 36.409 36.41 0 20.388-16.02 36.408-36.41 36.408z m0-218.453c-20.39 0-36.41-16.02-36.41-36.41 0-20.388 16.02-36.408 36.41-36.408 20.389 0 36.409 16.02 36.409 36.409s-16.02 36.409-36.41 36.409z m0-218.454c-20.39 0-36.41-16.02-36.41-36.409s16.02-36.408 36.41-36.408c20.389 0 36.409 16.02 36.409 36.408 0 20.39-16.02 36.41-36.41 36.41zM734.044 773.12h-291.27c-20.39 0-36.41-16.02-36.41-36.409s16.02-36.409 36.41-36.409h291.27c20.39 0 36.41 16.02 36.41 36.41 0 20.388-16.02 36.408-36.41 36.408z m0-218.453h-291.27c-20.39 0-36.41-16.02-36.41-36.41 0-20.388 16.02-36.408 36.41-36.408h291.27c20.39 0 36.41 16.02 36.41 36.409s-16.02 36.409-36.41 36.409z m0-218.454h-291.27c-20.39 0-36.41-16.02-36.41-36.409s16.02-36.408 36.41-36.408h291.27c20.39 0 36.41 16.02 36.41 36.408 0 20.39-16.02 36.41-36.41 36.41z" p-id="65657" data-spm-anchor-id="a313x.7781069.0.i96" class="selected" fill="#d81e06"></path></svg>