<?xml version="1.0" standalone="no"?><!DOCTYPE svg PUBLIC "-//W3C//DTD SVG 1.1//EN" "http://www.w3.org/Graphics/SVG/1.1/DTD/svg11.dtd"><svg t="1619341707985" class="icon" viewBox="0 0 1024 1024" version="1.1" xmlns="http://www.w3.org/2000/svg" p-id="65405" xmlns:xlink="http://www.w3.org/1999/xlink" width="200" height="200"><defs><style type="text/css"></style></defs><path d="M0 0m102.4 0l819.2 0q102.4 0 102.4 102.4l0 819.2q0 102.4-102.4 102.4l-819.2 0q-102.4 0-102.4-102.4l0-819.2q0-102.4 102.4-102.4Z" fill="#d81e06" p-id="65406" data-spm-anchor-id="a313x.7781069.0.i94" class="selected"></path><path d="M409.6 488.192H230.4a51.2 51.2 0 0 1-51.2-51.2v-179.2a51.2 51.2 0 0 1 51.2-51.2h179.2a51.2 51.2 0 0 1 51.2 51.2v179.2a51.2 51.2 0 0 1-51.2 51.2z m-179.2-230.4v179.2h179.2v-179.2z" fill="#FFFFFF" p-id="65407"></path><path d="M409.6 846.592H230.4a51.2 51.2 0 0 1-51.2-51.2v-179.2a51.2 51.2 0 0 1 51.2-51.2h179.2a51.2 51.2 0 0 1 51.2 51.2v179.2a51.2 51.2 0 0 1-51.2 51.2z m-179.2-230.4v179.2h179.2v-179.2z" fill="#FFFFFF" p-id="65408"></path><path d="M665.6 494.336a51.2 51.2 0 0 1-36.096-14.848l-108.8-108.544a51.2 51.2 0 0 1 0-72.448l108.544-108.544a51.2 51.2 0 0 1 72.448 0l108.8 108.544a51.2 51.2 0 0 1 0 72.448l-108.8 108.544a51.2 51.2 0 0 1-36.096 14.848z m-108.544-159.744L665.6 443.136l108.544-108.544L665.6 226.048z" fill="#FFFFFF" p-id="65409"></path><path d="M768 846.592h-179.2a51.2 51.2 0 0 1-51.2-51.2v-179.2a51.2 51.2 0 0 1 51.2-51.2h179.2a51.2 51.2 0 0 1 51.2 51.2v179.2a51.2 51.2 0 0 1-51.2 51.2z m-179.2-230.4v179.2h179.2v-179.2z" fill="#FFFFFF" p-id="65410"></path></svg>