<?xml version="1.0" standalone="no"?><!DOCTYPE svg PUBLIC "-//W3C//DTD SVG 1.1//EN" "http://www.w3.org/Graphics/SVG/1.1/DTD/svg11.dtd"><svg t="1619341756967" class="icon" viewBox="0 0 1025 1024" version="1.1" xmlns="http://www.w3.org/2000/svg" p-id="68143" xmlns:xlink="http://www.w3.org/1999/xlink" width="200.1953125" height="200"><defs><style type="text/css"></style></defs><path d="M920.9856 109.3632H105.472C47.9232 109.3632 1.2288 156.0576 1.2288 213.6064v611.1232c0 57.5488 46.6944 104.2432 104.2432 104.2432h815.5136c57.5488 0 104.2432-46.6944 104.2432-104.2432V213.6064c0-57.5488-46.6944-104.2432-104.2432-104.2432zM272.1792 719.872c0 21.2992-17.408 38.7072-38.7072 38.7072-21.2992 0-38.7072-17.408-38.7072-38.7072V318.6688c0-21.2992 17.408-38.7072 38.7072-38.7072 21.2992 0 38.7072 17.408 38.7072 38.7072v401.2032z m183.296 0c0 21.2992-17.408 38.7072-38.7072 38.7072-21.2992 0-38.7072-17.408-38.7072-38.7072V318.6688c0-21.2992 17.408-38.7072 38.7072-38.7072 21.2992 0 38.7072 17.408 38.7072 38.7072v401.2032z m183.296 0c0 21.2992-17.408 38.7072-38.7072 38.7072-21.2992 0-38.7072-17.408-38.7072-38.7072V318.6688c0-21.2992 17.408-38.7072 38.7072-38.7072 21.2992 0 38.7072 17.408 38.7072 38.7072v401.2032z m183.5008 0c0 21.2992-17.408 38.7072-38.7072 38.7072s-38.7072-17.408-38.7072-38.7072V318.6688c0-21.2992 17.408-38.7072 38.7072-38.7072s38.7072 17.408 38.7072 38.7072v401.2032z" p-id="68144" data-spm-anchor-id="a313x.7781069.0.i98" class="selected" fill="#d81e06"></path></svg>