<?xml version="1.0" standalone="no"?><!DOCTYPE svg PUBLIC "-//W3C//DTD SVG 1.1//EN" "http://www.w3.org/Graphics/SVG/1.1/DTD/svg11.dtd"><svg t="1619354470016" class="icon" viewBox="0 0 1024 1024" version="1.1" xmlns="http://www.w3.org/2000/svg" p-id="116432" xmlns:xlink="http://www.w3.org/1999/xlink" width="200" height="200"><defs><style type="text/css"></style></defs><path d="M950 812.107H363c-82.843 0-141.751-71.433-150-150l-78.679-456 57.66-0.511 71.464 455.966c8.249 57.438 46.563 104.001 104 104.001H950v46.544z" p-id="116433" fill="#1296db"></path><path d="M0 205h188v50H0z" p-id="116434" fill="#1296db"></path><path d="M399.36 819.2c39.588 0 71.68 32.092 71.68 71.68 0 39.588-32.092 71.68-71.68 71.68-39.588 0-71.68-32.092-71.68-71.68 0-39.588 32.092-71.68 71.68-71.68zM788.48 819.2c39.588 0 71.68 32.092 71.68 71.68 0 39.588-32.092 71.68-71.68 71.68-39.588 0-71.68-32.092-71.68-71.68 0-39.588 32.092-71.68 71.68-71.68zM921.6 614.398c-15.145 45.241-57.158 81.918-102.4 81.918H225.28l-61.44-430.077h184.32l245.76 245.757 245.759-245.757H942.08c45.243 0 81.919 36.675 81.919 81.919L921.6 614.398z" p-id="116435" fill="#1296db"></path><path d="M737.279 286.717L593.92 430.075 450.56 286.717h81.92V61.44h122.88v225.277h81.919z" p-id="116436" fill="#1296db"></path></svg>