<?xml version="1.0" standalone="no"?><!DOCTYPE svg PUBLIC "-//W3C//DTD SVG 1.1//EN" "http://www.w3.org/Graphics/SVG/1.1/DTD/svg11.dtd"><svg t="1619355113811" class="icon" viewBox="0 0 1024 1024" version="1.1" xmlns="http://www.w3.org/2000/svg" p-id="27578" xmlns:xlink="http://www.w3.org/1999/xlink" width="200" height="200"><defs><style type="text/css"></style></defs><path d="M571.392 446.464h32.768c18.432 0 32.768 14.336 32.768 32.768 0 18.432-14.336 32.768-32.768 32.768h-59.392v22.528H614.4c18.432 0 32.768 14.336 32.768 32.768 0 18.432-14.336 32.768-32.768 32.768h-69.632v63.488c0 18.432-14.336 32.768-32.768 32.768-18.432 0-32.768-14.336-32.768-32.768v-63.488H409.6c-18.432 0-32.768-14.336-32.768-32.768 0-18.432 14.336-32.768 32.768-32.768h71.68V512h-61.44c-18.432 0-32.768-14.336-32.768-32.768 0-18.432 14.336-32.768 32.768-32.768h34.816l-40.96-63.488c-10.24-14.336-4.096-34.816 10.24-43.008 14.336-10.24 34.816-4.096 45.056 10.24l45.056 69.632 45.056-69.632c10.24-14.336 28.672-20.48 45.056-10.24 14.336 10.24 20.48 28.672 10.24 43.008l-43.008 63.488z m-2.048 348.16l260.096-227.328c12.288-16.384 10.24-38.912-4.096-51.2-6.144-4.096-14.336-8.192-22.528-8.192h-75.776V272.384c0-34.816-26.624-59.392-59.392-59.392h-307.2c-34.816 0-59.392 24.576-59.392 59.392v235.52H225.28c-6.144 0-10.24 2.048-10.24 2.048-20.48 6.144-30.72 26.624-24.576 45.056 2.048 6.144 4.096 10.24 8.192 14.336l260.096 227.328c28.672 24.576 77.824 24.576 110.592-2.048z m251.904 184.32l-57.344 40.96c-6.144 4.096-14.336 4.096-20.48 0l-59.392-40.96c-6.144-4.096-14.336-4.096-20.48 0l-59.392 40.96c-6.144 4.096-14.336 4.096-20.48 0l-59.392-40.96c-6.144-4.096-14.336-4.096-20.48 0l-59.392 40.96c-6.144 4.096-14.336 4.096-20.48 0l-59.392-40.96c-6.144-4.096-14.336-4.096-20.48 0l-59.392 40.96c-6.144 4.096-14.336 4.096-20.48 0l-57.344-40.96c-6.144-4.096-16.384-4.096-20.48 2.048C153.6 1009.664 133.12 1024 120.832 1024c-18.432 0-83.968-55.296-83.968-108.544V86.016C36.864 38.912 75.776 0 122.88 0h770.048c47.104 0 86.016 38.912 86.016 86.016v829.44c0 51.2-61.44 106.496-77.824 106.496-10.24 0-30.72-14.336-63.488-43.008-2.048-4.096-10.24-4.096-16.384 0z" p-id="27579" data-spm-anchor-id="a313x.7781069.0.i5" class="" fill="#1afa29"></path></svg>