<?xml version="1.0" standalone="no"?><!DOCTYPE svg PUBLIC "-//W3C//DTD SVG 1.1//EN" "http://www.w3.org/Graphics/SVG/1.1/DTD/svg11.dtd"><svg t="1619355224813" class="icon" viewBox="0 0 1024 1024" version="1.1" xmlns="http://www.w3.org/2000/svg" p-id="17731" xmlns:xlink="http://www.w3.org/1999/xlink" width="200" height="200"><defs><style type="text/css"></style></defs><path d="M102.4 0h819.2a102.4 102.4 0 0 1 102.4 102.4v819.2a102.4 102.4 0 0 1-102.4 102.4H102.4a102.4 102.4 0 0 1-102.4-102.4V102.4a102.4 102.4 0 0 1 102.4-102.4z m609.54624 286.72H291.57376c-13.9264 0-25.33376 11.40736-25.33376 25.33376v116.26496c0 13.9264 11.40736 25.33376 25.33376 25.33376h33.25952V390.9632h-1.88416a20.54144 20.54144 0 0 1-20.60288-20.60288c0-11.38688 9.19552-20.5824 20.60288-20.5824H680.5504c11.40736 0 20.60288 9.19552 20.60288 20.5824 0 11.40736-9.19552 20.60288-20.60288 20.60288h-1.88416v62.70976h33.25952c13.6192 0 25.02656-11.40736 25.33376-25.33376v-116.26496c0-13.9264-11.40736-25.33376-25.33376-25.33376z m-62.11584 103.56736H353.8944a17.67424 17.67424 0 0 0-17.75616 17.73568v327.168c0 4.93568 6.57408 9.216 11.50976 6.57408 4.58752-2.62144 67.66592-40.73472 67.66592-40.73472a14.2336 14.2336 0 0 1 14.45888 0l63.73376 39.75168s2.62144 1.31072 8.192 1.31072c5.59104 0 7.8848-1.31072 7.8848-1.31072l67.03104-40.40704a14.2336 14.2336 0 0 1 14.4384 0s62.09536 38.0928 66.02752 40.7552c4.28032 2.60096 10.52672-0.67584 10.52672-5.9392V407.36768c0-9.216-7.8848-17.08032-17.75616-17.08032z m-48.27136 193.14688h-199.41376a16.81408 16.81408 0 0 1-16.75264-16.75264c0-9.216 7.5776-16.75264 16.75264-16.75264h199.41376c9.19552 0 16.75264 7.55712 16.75264 16.75264 0 9.216-7.5776 16.75264-16.75264 16.75264z m0-75.8784h-199.41376a16.81408 16.81408 0 0 1-16.75264-16.75264c0-9.216 7.5776-16.75264 16.75264-16.75264h199.41376c9.19552 0 16.75264 7.55712 16.75264 16.75264 0 9.19552-7.5776 16.75264-16.75264 16.75264z" fill="#1afa29" p-id="17732"></path></svg>