<?xml version="1.0" standalone="no"?><!DOCTYPE svg PUBLIC "-//W3C//DTD SVG 1.1//EN" "http://www.w3.org/Graphics/SVG/1.1/DTD/svg11.dtd"><svg t="1619354565384" class="icon" viewBox="0 0 1024 1024" version="1.1" xmlns="http://www.w3.org/2000/svg" p-id="1235" xmlns:xlink="http://www.w3.org/1999/xlink" width="200" height="200"><defs><style type="text/css"></style></defs><path d="M950 812.107H363c-82.843 0-141.751-71.433-150-150l-78.679-456 57.66-0.511 71.464 455.966c8.249 57.438 46.563 104.001 104 104.001H950v46.544z" p-id="1236" fill="#1afa29"></path><path d="M0 205h188v50H0z" p-id="1237" fill="#1afa29"></path><path d="M921.599 614.398c-15.143 45.241-57.156 81.918-102.399 81.918H225.28l-61.441-430.077H491.52V471.04h204.8V266.239h245.76c45.242 0 81.919 36.675 81.919 81.919l-102.4 266.24zM399.36 819.2c39.588 0 71.68 32.092 71.68 71.68 0 39.588-32.092 71.68-71.68 71.68-39.588 0-71.68-32.092-71.68-71.68 0-39.588 32.092-71.68 71.68-71.68zM788.48 819.2c39.588 0 71.68 32.092 71.68 71.68 0 39.588-32.092 71.68-71.68 71.68-39.588 0-71.68-32.092-71.68-71.68 0-39.588 32.092-71.68 71.68-71.68z" p-id="1238" fill="#1afa29"></path><path d="M655.36 204.799V430.08H532.48V204.799h-81.92L593.919 61.436 737.28 204.799h-81.92z" p-id="1239" fill="#1afa29"></path></svg>