<?xml version="1.0" standalone="no"?><!DOCTYPE svg PUBLIC "-//W3C//DTD SVG 1.1//EN" "http://www.w3.org/Graphics/SVG/1.1/DTD/svg11.dtd"><svg t="1619361938602" class="icon" viewBox="0 0 1024 1024" version="1.1" xmlns="http://www.w3.org/2000/svg" p-id="46540" xmlns:xlink="http://www.w3.org/1999/xlink" width="200" height="200"><defs><style type="text/css"></style></defs><path d="M983.68 0.992H432.32v157.216H275.104V0.96H39.296A39.392 39.392 0 0 0 0 40.32v944.416c0.064 21.664 17.6 39.232 39.296 39.296h944.416a39.392 39.392 0 0 0 39.296-39.296V40.288A39.392 39.392 0 0 0 983.68 0.992zM275.136 631.04H117.888v-157.184h157.216V316.608H117.888V159.424h157.216v157.184h157.184v157.216H275.104v157.184z m215.296 98.912l-94.016 57.664 94.016 58.944v60.384l-134.912-93.088v-51.68l134.912-93.056v60.832z m129.792 201.984h-57.728l49.12-293.536h57.728l-49.12 293.536z m244.832-118.08l-134.912 93.504v-60.416l94.272-58.944-94.272-58.048v-59.968l134.912 92.64v51.232z" fill="#f4ea2a" p-id="46541"></path></svg>