<?xml version="1.0" standalone="no"?><!DOCTYPE svg PUBLIC "-//W3C//DTD SVG 1.1//EN" "http://www.w3.org/Graphics/SVG/1.1/DTD/svg11.dtd"><svg t="1619364255812" class="icon" viewBox="0 0 1024 1024" version="1.1" xmlns="http://www.w3.org/2000/svg" p-id="146942" xmlns:xlink="http://www.w3.org/1999/xlink" width="200" height="200"><defs><style type="text/css"></style></defs><path d="M710.3 735.1H325.2c-25 1.1-44.4 22.3-43.3 47.3 1 23.4 19.8 42.2 43.3 43.3h385.1c25 0 45.3-20.3 45.2-45.3 0-25.1-20.2-45.3-45.2-45.3M304.4 443.6h109.9v171c0 6.5 2.4 12.3 7.3 17.2 4.5 4.7 10.7 7.3 17.1 7.2h146.6c6.5 0.1 12.6-2.5 17.1-7.2 4.7-4.5 7.3-10.7 7.3-17.2v-171h109.9c6.5 0 12.7-2.6 17.1-7.3 4.7-4.5 7.3-10.7 7.3-17.2 0.1-6.5-2.6-12.7-7.3-17.2L529.2 194.4c-4.5-4.7-10.7-7.3-17.2-7.3-6.5-0.1-12.7 2.6-17.2 7.3L287.2 402c-4.7 4.5-7.3 10.7-7.3 17.2 0 6.6 2.4 12.3 7.2 17.2 4.6 4.6 10.8 7.2 17.3 7.2M960 848c0 61.8-50.1 112-111.9 112H176c-61.8 0-112-50.1-112-112V176c0-61.9 50.1-112 112-112h672c61.8 0 112 50.1 112 111.9V848z" fill="#1aaba8" p-id="146943"></path></svg>