<?xml version="1.0" standalone="no"?><!DOCTYPE svg PUBLIC "-//W3C//DTD SVG 1.1//EN" "http://www.w3.org/Graphics/SVG/1.1/DTD/svg11.dtd"><svg t="1619364209522" class="icon" viewBox="0 0 1024 1024" version="1.1" xmlns="http://www.w3.org/2000/svg" p-id="144843" xmlns:xlink="http://www.w3.org/1999/xlink" width="200" height="200"><defs><style type="text/css"></style></defs><path d="M877.714286 73.142857a48.761905 48.761905 0 0 1 48.761904 48.761905v780.190476a48.761905 48.761905 0 0 1-48.761904 48.761905H146.285714a48.761905 48.761905 0 0 1-48.761904-48.761905V121.904762a48.761905 48.761905 0 0 1 48.761904-48.761905h731.428572z m-73.142857 707.047619H219.428571a24.380952 24.380952 0 0 0 0 48.761905h585.142858a24.380952 24.380952 0 0 0 0-48.761905z m0-121.904762H219.428571a24.380952 24.380952 0 0 0 0 48.761905h585.142858a24.380952 24.380952 0 0 0 0-48.761905z m-106.959239-287.451428a24.380952 24.380952 0 0 0-32.182857 2.023619l-48.761904 48.761905-2.023619 2.291809a24.380952 24.380952 0 0 0 2.023619 32.182857l2.291809 2.023619a24.380952 24.380952 0 0 0 32.182857-2.023619l7.143619-7.143619V463.238095l-0.170666 2.852572A24.380952 24.380952 0 0 1 633.904762 487.619048H390.095238l-2.852571-0.170667A24.380952 24.380952 0 0 1 365.714286 463.238095h-48.761905l0.121905 4.291048A73.142857 73.142857 0 0 0 390.095238 536.380952h243.809524l4.291048-0.121904A73.142857 73.142857 0 0 0 707.047619 463.238095v-14.262857l7.143619 7.119238 2.29181 2.023619a24.380952 24.380952 0 0 0 32.182857-36.498285l-48.761905-48.761905zM633.904762 243.809524H390.095238l-4.291048 0.121905A73.142857 73.142857 0 0 0 316.952381 316.952381v14.262857l-7.143619-7.119238-2.29181-2.023619a24.380952 24.380952 0 0 0-32.182857 36.498286l48.761905 48.761904 2.29181 2.023619a24.380952 24.380952 0 0 0 32.182857-2.023619l48.761904-48.761904 2.023619-2.29181a24.380952 24.380952 0 0 0-2.023619-32.182857l-2.291809-2.023619a24.380952 24.380952 0 0 0-32.182857 2.023619l-7.143619 7.094857V316.952381l0.170666-2.852571A24.380952 24.380952 0 0 1 390.095238 292.571429h243.809524l2.852571 0.170666A24.380952 24.380952 0 0 1 658.285714 316.952381h48.761905l-0.121905-4.291048A73.142857 73.142857 0 0 0 633.904762 243.809524z" p-id="144844" fill="#1aaba8"></path></svg>