<?xml version="1.0" standalone="no"?><!DOCTYPE svg PUBLIC "-//W3C//DTD SVG 1.1//EN" "http://www.w3.org/Graphics/SVG/1.1/DTD/svg11.dtd"><svg t="1619362584360" class="icon" viewBox="0 0 1024 1024" version="1.1" xmlns="http://www.w3.org/2000/svg" p-id="79834" xmlns:xlink="http://www.w3.org/1999/xlink" width="200" height="200"><defs><style type="text/css"></style></defs><path d="M816.872727 978.525091l-57.250909 40.727273a16.756364 16.756364 0 0 1-19.549091 0l-58.414545-41.611637a16.756364 16.756364 0 0 0-19.502546 0l-58.461091 41.611637a16.756364 16.756364 0 0 1-19.54909 0l-58.414546-41.611637a16.756364 16.756364 0 0 0-19.549091 0l-58.461091 41.611637a16.756364 16.756364 0 0 1-19.456 0l-58.461091-41.611637a16.756364 16.756364 0 0 0-19.549091 0l-58.46109 41.611637a16.756364 16.756364 0 0 1-19.502546 0l-57.018182-40.587637a16.756364 16.756364 0 0 0-21.131636 1.396364c-31.930182 29.323636-53.527273 43.938909-64.930909 43.938909C110.452364 1024 46.545455 968.890182 46.545455 915.269818V85.457455C46.545455 38.260364 84.433455 0 131.165091 0h761.669818C939.566545 0 977.454545 38.260364 977.454545 85.457455v829.812363c0 51.432727-60.834909 107.333818-76.8 107.287273-9.774545-0.093091-30.72-14.382545-62.836363-42.914909a16.756364 16.756364 0 0 0-20.945455-1.117091z m-248.878545-185.856H567.854545l251.159273-226.397091a37.655273 37.655273 0 0 0 5.213091-38.306909 35.746909 35.746909 0 0 0-30.906182-21.922909v-0.186182h-1.536l-0.698182 0.093091h-72.564363V269.963636c0-34.071273-24.855273-59.112727-57.716364-59.112727H363.426909c-32.861091 0-57.716364 25.181091-57.716364 59.112727v235.985455h-74.007272a25.786182 25.786182 0 0 0-8.936728 1.442909 36.072727 36.072727 0 0 0-24.576 24.855273 37.422545 37.422545 0 0 0 7.447273 34.629818l250.88 226.164364c32.535273 26.996364 79.080727 26.903273 111.522909-0.325819z m2.792727-348.020364h33.093818c17.826909 0 32.256 14.382545 32.256 32.116364 0 17.687273-14.429091 32.116364-32.256 32.116364H544.581818v23.552h70.283637c17.826909 0 32.256 14.382545 32.256 32.116363 0 17.687273-14.429091 32.116364-32.209455 32.116364H544.581818v63.953454c0 17.687273-14.429091 32.116364-32.256 32.116364a32.162909 32.162909 0 0 1-32.209454-32.116364v-64H409.088a32.162909 32.162909 0 0 1-32.209455-32.116363c0-17.687273 14.429091-32.069818 32.209455-32.069818h71.028364v-23.552H419.234909a32.162909 32.162909 0 0 1-32.209454-32.116364c0-17.687273 14.429091-32.069818 32.209454-32.069818h34.443636l-40.494545-64.279273a31.837091 31.837091 0 0 1 10.100364-44.171636l0.139636-0.093091a32.302545 32.302545 0 0 1 44.357818 10.146909l44.497455 70.376727 44.544-70.376727a32.302545 32.302545 0 0 1 44.357818-10.146909l0.139636 0.093091 0.093091 0.046545c15.034182 9.402182 19.502545 29.184 10.053818 44.078546l-40.634181 64.232727v0.046545z" p-id="79835" fill="#d4237a"></path></svg>