<?xml version="1.0" standalone="no"?><!DOCTYPE svg PUBLIC "-//W3C//DTD SVG 1.1//EN" "http://www.w3.org/Graphics/SVG/1.1/DTD/svg11.dtd"><svg t="1619363138586" class="icon" viewBox="0 0 1024 1024" version="1.1" xmlns="http://www.w3.org/2000/svg" p-id="134142" xmlns:xlink="http://www.w3.org/1999/xlink" width="200" height="200"><defs><style type="text/css"></style></defs><path d="M136.533333 0h750.933334a136.533333 136.533333 0 0 1 136.533333 136.533333v750.933334a136.533333 136.533333 0 0 1-136.533333 136.533333H136.533333a136.533333 136.533333 0 0 1-136.533333-136.533333V136.533333a136.533333 136.533333 0 0 1 136.533333-136.533333z" fill="#d4237a" p-id="134143" data-spm-anchor-id="a313x.7781069.0.i28" class="selected"></path><path d="M424.2432 744.277333C296.96 735.914667 204.8 698.4704 204.8 648.533333v62.464C204.8 769.2288 332.0832 819.2 494.455467 819.2H512a253.064533 253.064533 0 0 1-87.7568-74.922667zM409.6 682.666667c-4.437333-17.5104-8.874667-35.0208-8.874667-52.497067 0-8.772267 0-17.5104 4.437334-26.282667C289.3824 595.1488 204.8 560.128 204.8 512v65.6384c0 48.128 84.5824 91.886933 204.8 105.028267z m-11.195733-102.4c8.260267-25.6 24.746667-46.933333 45.329066-68.266667-135.953067-4.266667-238.933333-42.666667-238.933333-102.4v64c0 51.2 82.397867 93.866667 193.604267 106.666667z m277.435733-68.266667h-54.613333v109.226667H512v54.613333h109.226667V785.066667h54.613333v-109.226667H785.066667v-54.613333h-109.226667V512zM512 204.8c-171.144533 0-307.2 59.153067-307.2 136.533333s136.055467 136.533333 307.2 136.533334h8.772267c61.44-36.420267 144.827733-59.153067 232.584533-59.153067h13.175467C801.655467 395.946667 819.2 368.64 819.2 341.333333c0-77.380267-136.055467-136.533333-307.2-136.533333z" fill="#FFFFFF" p-id="134144"></path></svg>