<?xml version="1.0" standalone="no"?><!DOCTYPE svg PUBLIC "-//W3C//DTD SVG 1.1//EN" "http://www.w3.org/Graphics/SVG/1.1/DTD/svg11.dtd"><svg t="1619362910093" class="icon" viewBox="0 0 1024 1024" version="1.1" xmlns="http://www.w3.org/2000/svg" p-id="125245" xmlns:xlink="http://www.w3.org/1999/xlink" width="200" height="200"><defs><style type="text/css"></style></defs><path d="M819.413 976.896l-57.728 40.661a17.067 17.067 0 0 1-19.669 0L683.051 976a17.067 17.067 0 0 0-19.627 0l-58.965 41.557a17.067 17.067 0 0 1-19.67 0L525.824 976a17.067 17.067 0 0 0-19.67 0l-58.965 41.557a17.067 17.067 0 0 1-19.626 0L368.597 976a17.067 17.067 0 0 0-19.669 0l-58.965 41.557a17.067 17.067 0 0 1-19.67 0l-57.472-40.533a17.067 17.067 0 0 0-21.333 1.365c-32.17 29.27-53.973 43.904-65.45 43.904-18.945 0-83.371-55.04-83.371-108.544V85.333A85.333 85.333 0 0 1 128 0h768a85.333 85.333 0 0 1 85.333 85.333V913.75c0 51.328-61.354 107.136-77.482 107.094-9.814-0.086-30.891-14.336-63.36-42.838a17.067 17.067 0 0 0-21.078-1.109zM569.6 182.699a91.179 91.179 0 0 0-114.859-0.342L196.48 408.576a36.608 36.608 0 0 0 17.664 59.435s3.755 1.493 9.216 1.493h76.16v236.032c0 33.877 25.557 59.05 59.35 59.05h306.389c33.834 0 59.392-25.002 59.392-59.05V469.419h74.709l0.725 0.17 0.598-0.085h0.938v-0.17a36.779 36.779 0 0 0 26.496-60.203L569.6 182.699h0.085z m7.21 231.082h36.523a35.541 35.541 0 1 1 0 71.126h-65.45v26.112h77.568a35.541 35.541 0 1 1 0 71.125h-77.568v70.827a35.541 35.541 0 0 1-71.126 0v-70.827h-78.25a35.541 35.541 0 0 1 0-71.125H476.8v-26.112h-67.115a35.541 35.541 0 0 1 0-71.126h38.059l-44.8-71.125a35.413 35.413 0 0 1 11.179-48.939 35.67 35.67 0 0 1 49.066 11.264l49.067 77.867 49.067-77.867a35.67 35.67 0 0 1 49.237-11.178 35.413 35.413 0 0 1 11.093 48.853l-44.8 71.125z" fill="#d4237a" p-id="125246"></path></svg>